<svg width="39" height="38" viewBox="0 0 39 38" fill="none" xmlns="http://www.w3.org/2000/svg">
<path d="M0.5 0.5H38.5V37.5H0.5V0.5Z" fill="white" stroke="black"/>
<path d="M9.75098 9.14453H6.77246L6.10352 11H5.13672L7.85156 3.89062H8.67188L11.3916 11H10.4297L9.75098 9.14453ZM7.05566 8.37305H9.47266L8.26172 5.04785L7.05566 8.37305ZM13.7896 7.86914C13.6938 7.85319 13.5902 7.84521 13.4785 7.84521C13.0638 7.84521 12.7824 8.02181 12.6343 8.375V11H12.002V7.30176H12.6172L12.6274 7.729C12.8348 7.3986 13.1287 7.2334 13.5093 7.2334C13.6323 7.2334 13.7257 7.24935 13.7896 7.28125V7.86914ZM15.4028 6.40625V7.30176H16.0933V7.79053H15.4028V10.084C15.4028 10.2321 15.4336 10.3438 15.4951 10.4189C15.5566 10.4919 15.6615 10.5283 15.8096 10.5283C15.8825 10.5283 15.9827 10.5146 16.1104 10.4873V11C15.944 11.0456 15.7822 11.0684 15.625 11.0684C15.3424 11.0684 15.1294 10.9829 14.9858 10.812C14.8423 10.6411 14.7705 10.3984 14.7705 10.084V7.79053H14.0972V7.30176H14.7705V6.40625H15.4028ZM11.2939 19.6748C11.2939 20.3714 11.1768 20.9801 10.9424 21.501C10.708 22.0186 10.376 22.4141 9.94629 22.6875C9.5166 22.9609 9.0153 23.0977 8.44238 23.0977C7.88249 23.0977 7.38607 22.9609 6.95312 22.6875C6.52018 22.4108 6.18327 22.0186 5.94238 21.5107C5.70475 20.9997 5.58268 20.4089 5.57617 19.7383V19.2256C5.57617 18.542 5.69499 17.9382 5.93262 17.4141C6.17025 16.89 6.50553 16.4896 6.93848 16.2129C7.37467 15.9329 7.87272 15.793 8.43262 15.793C9.00228 15.793 9.50358 15.9313 9.93652 16.208C10.3727 16.4814 10.708 16.8802 10.9424 17.4043C11.1768 17.9251 11.2939 18.5322 11.2939 19.2256V19.6748ZM10.3613 19.2158C10.3613 18.3727 10.1921 17.7266 9.85352 17.2773C9.51497 16.8249 9.04134 16.5986 8.43262 16.5986C7.84017 16.5986 7.37305 16.8249 7.03125 17.2773C6.69271 17.7266 6.51855 18.3516 6.50879 19.1523V19.6748C6.50879 20.4919 6.67969 21.1348 7.02148 21.6035C7.36654 22.069 7.84017 22.3018 8.44238 22.3018C9.04785 22.3018 9.5166 22.082 9.84863 21.6426C10.1807 21.1999 10.3516 20.5667 10.3613 19.7432V19.2158ZM12.6646 23V19.7905H12.0801V19.3018H12.6646V18.9224C12.6646 18.5259 12.7705 18.2194 12.9824 18.0029C13.1943 17.7865 13.494 17.6782 13.8813 17.6782C14.0272 17.6782 14.1719 17.6976 14.3154 17.7363L14.2812 18.249C14.1742 18.2285 14.0602 18.2183 13.9395 18.2183C13.7344 18.2183 13.576 18.2786 13.4644 18.3994C13.3527 18.5179 13.2969 18.6888 13.2969 18.9121V19.3018H14.0864V19.7905H13.2969V23H12.6646ZM10.7373 28.6621H8.45215V35H7.51953V28.6621H5.23926V27.8906H10.7373V28.6621ZM13.2329 31.8691C13.1372 31.8532 13.0335 31.8452 12.9219 31.8452C12.5072 31.8452 12.2257 32.0218 12.0776 32.375V35H11.4453V31.3018H12.0605L12.0708 31.729C12.2782 31.3986 12.5721 31.2334 12.9526 31.2334C13.0757 31.2334 13.1691 31.2493 13.2329 31.2812V31.8691ZM15.9639 35C15.9274 34.9271 15.8978 34.7972 15.875 34.6104C15.5811 34.9157 15.2301 35.0684 14.8223 35.0684C14.4577 35.0684 14.158 34.9658 13.9233 34.7607C13.6909 34.5534 13.5747 34.2913 13.5747 33.9746C13.5747 33.5895 13.7205 33.291 14.0122 33.0791C14.3062 32.8649 14.7186 32.7578 15.2495 32.7578H15.8647V32.4673C15.8647 32.2463 15.7987 32.0708 15.6665 31.9409C15.5343 31.8088 15.3395 31.7427 15.082 31.7427C14.8564 31.7427 14.6673 31.7996 14.5146 31.9136C14.362 32.0275 14.2856 32.1654 14.2856 32.3271H13.6499C13.6499 32.1426 13.7148 31.9648 13.8447 31.7939C13.9769 31.6208 14.1546 31.484 14.3779 31.3838C14.6035 31.2835 14.8507 31.2334 15.1196 31.2334C15.5457 31.2334 15.8796 31.3405 16.1211 31.5547C16.3626 31.7666 16.488 32.0594 16.4971 32.4331V34.1353C16.4971 34.4748 16.5404 34.7448 16.627 34.9453V35H15.9639ZM14.9146 34.5181C15.1128 34.5181 15.3008 34.4668 15.4785 34.3643C15.6562 34.2617 15.785 34.1284 15.8647 33.9644V33.2056H15.3691C14.5944 33.2056 14.207 33.4323 14.207 33.8857C14.207 34.084 14.2731 34.2389 14.4053 34.3506C14.5374 34.4622 14.7072 34.5181 14.9146 34.5181ZM18.6538 34.1421L19.5698 31.3018H20.2158L18.8896 35H18.4077L17.0679 31.3018H17.7139L18.6538 34.1421ZM22.311 35.0684C21.8097 35.0684 21.4019 34.9043 21.0874 34.5762C20.7729 34.2458 20.6157 33.8049 20.6157 33.2534V33.1372C20.6157 32.7703 20.6852 32.4434 20.8242 32.1562C20.9655 31.8669 21.1615 31.6413 21.4121 31.4795C21.665 31.3154 21.9385 31.2334 22.2324 31.2334C22.7132 31.2334 23.0869 31.3918 23.3535 31.7085C23.6201 32.0252 23.7534 32.4787 23.7534 33.0688V33.332H21.248C21.2572 33.6966 21.3631 33.9917 21.5659 34.2173C21.771 34.4406 22.0308 34.5522 22.3452 34.5522C22.5685 34.5522 22.7576 34.5067 22.9126 34.4155C23.0675 34.3244 23.2031 34.2036 23.3193 34.0532L23.7056 34.354C23.3957 34.8302 22.9308 35.0684 22.311 35.0684ZM22.2324 31.7529C21.9772 31.7529 21.763 31.8464 21.5898 32.0332C21.4167 32.2178 21.3096 32.4775 21.2686 32.8125H23.1211V32.7646C23.1029 32.4434 23.0163 32.195 22.8613 32.0195C22.7064 31.8418 22.4967 31.7529 22.2324 31.7529ZM25.1753 35H24.543V29.75H25.1753V35Z" fill="black"/>
</svg>
